<?xml version="1.0" encoding="UTF-8" standalone="no"?>
<!-- Created with Inkscape (http://www.inkscape.org/) -->

<svg
   xmlns:dc="http://purl.org/dc/elements/1.1/"
   xmlns:cc="http://creativecommons.org/ns#"
   xmlns:rdf="http://www.w3.org/1999/02/22-rdf-syntax-ns#"
   xmlns:svg="http://www.w3.org/2000/svg"
   xmlns="http://www.w3.org/2000/svg"
   xmlns:sodipodi="http://sodipodi.sourceforge.net/DTD/sodipodi-0.dtd"
   xmlns:inkscape="http://www.inkscape.org/namespaces/inkscape"
   width="695"
   height="371.25"
   id="svg2"
   version="1.1"
   inkscape:version="0.48.5 r10040"
   inkscape:export-filename="/Users/kevinm/Desktop/CRI.png"
   inkscape:export-xdpi="600"
   inkscape:export-ydpi="600"
   sodipodi:docname="drawing-1.svg">
  <defs
     id="defs4" />
  <sodipodi:namedview
     id="base"
     pagecolor="#ffffff"
     bordercolor="#666666"
     borderopacity="1.0"
     inkscape:pageopacity="1"
     inkscape:pageshadow="2"
     inkscape:zoom="0.98994949"
     inkscape:cx="432.5058"
     inkscape:cy="216.95499"
     inkscape:document-units="px"
     inkscape:current-layer="layer1"
     showgrid="false"
     width="854px"
     inkscape:window-width="1600"
     inkscape:window-height="851"
     inkscape:window-x="1476"
     inkscape:window-y="0"
     inkscape:window-maximized="0">
    <inkscape:grid
       type="xygrid"
       id="grid2987"
       empspacing="5"
       visible="true"
       enabled="true"
       snapvisiblegridlinesonly="true" />
  </sodipodi:namedview>
  <metadata
     id="metadata7">
    <rdf:RDF>
      <cc:Work
         rdf:about="">
        <dc:format>image/svg+xml</dc:format>
        <dc:type
           rdf:resource="http://purl.org/dc/dcmitype/StillImage" />
        <dc:title></dc:title>
      </cc:Work>
    </rdf:RDF>
  </metadata>
  <g
     inkscape:label="Layer 1"
     inkscape:groupmode="layer"
     id="layer1"
     transform="translate(0,-681.11241)">
    <flowRoot
       xml:space="preserve"
       id="flowRoot5028"
       style="font-size:40px;font-style:normal;font-weight:normal;line-height:125%;letter-spacing:0px;word-spacing:0px;fill:#000000;fill-opacity:1;stroke:none;font-family:Sans"><flowRegion
         id="flowRegion5030"><rect
           id="rect5032"
           width="460"
           height="320"
           x="98.571426"
           y="213.79076" /></flowRegion><flowPara
         id="flowPara5034" /></flowRoot>    <g
       id="g5054"
       transform="translate(-24.547243,344.63573)"
       inkscape:export-filename="/Users/kevinm/CRI.png"
       inkscape:export-xdpi="600"
       inkscape:export-ydpi="600">
      <g
         transform="translate(4.4416367,290)"
         id="g5042">
        <g
           id="g3863"
           transform="translate(158.92571,-210.88801)">
          <rect
             style="fill:#ffffff;stroke:#3d4142;stroke-width:2;stroke-linecap:round;stroke-linejoin:round;stroke-miterlimit:10"
             x="341.20001"
             y="321.89999"
             stroke-miterlimit="10"
             width="32.299999"
             height="129.3"
             id="rect3865" />
          <rect
             style="fill:#00c7dc;fill-opacity:1;stroke:#3d4142;stroke-width:2;stroke-linecap:round;stroke-linejoin:round;stroke-miterlimit:10"
             x="346.39999"
             y="321.89999"
             stroke-miterlimit="10"
             width="22"
             height="129.3"
             id="rect3867" />
          <path
             style="fill:#ffffff;stroke:#3d4142;stroke-width:2;stroke-linecap:round;stroke-linejoin:round;stroke-miterlimit:10"
             inkscape:connector-curvature="0"
             stroke-miterlimit="10"
             d="M 376,270.2 V 292 c 0,6.8 -5.5,12.2 -12.2,12.2 H 351 c -6.8,0 -12.2,-5.5 -12.2,-12.2 v -21.8 c -9.3,6.1 -15.4,16.6 -15.4,28.5 0,18.8 15.3,34.1 34.1,34.1 18.8,0 34.1,-15.3 34.1,-34.1 -0.1,-11.9 -6.3,-22.4 -15.6,-28.5 z"
             id="path3869" />
          <path
             style="fill:#00c7dc;fill-opacity:1;stroke:#3d4142;stroke-width:2;stroke-linecap:round;stroke-linejoin:round;stroke-miterlimit:10"
             inkscape:connector-curvature="0"
             stroke-miterlimit="10"
             d="M 376,276.3 V 292 c 0,6.8 -5.5,12.2 -12.2,12.2 H 351 c -6.8,0 -12.2,-5.5 -12.2,-12.2 v -15.7 c -6.6,5.4 -10.8,13.6 -10.8,22.8 0,16.3 13.2,29.5 29.5,29.5 16.3,0 29.5,-13.2 29.5,-29.5 -0.1,-9.2 -4.3,-17.4 -11,-22.8 z"
             id="path3871" />
          <path
             style="fill:#ffffff;stroke:#3d4142;stroke-width:2;stroke-linecap:round;stroke-linejoin:round;stroke-miterlimit:10"
             inkscape:connector-curvature="0"
             stroke-miterlimit="10"
             d="m 338.8,501 v -21.8 c 0,-6.8 5.5,-12.3 12.2,-12.3 h 12.8 c 6.8,0 12.3,5.5 12.3,12.3 V 501 c 9.3,-6.1 15.4,-16.6 15.4,-28.5 0,-18.8 -15.3,-34.1 -34.1,-34.1 -18.8,0 -34.1,15.3 -34.1,34.1 0,11.9 6.1,22.5 15.5,28.5 z"
             id="path3873" />
          <path
             style="fill:#00c7dc;fill-opacity:1;stroke:#3d4142;stroke-width:2;stroke-linecap:round;stroke-linejoin:round;stroke-miterlimit:10"
             inkscape:connector-curvature="0"
             stroke-miterlimit="10"
             d="m 338.8,494.9 v -15.7 c 0,-6.8 5.5,-12.3 12.2,-12.3 h 12.8 c 6.8,0 12.3,5.5 12.3,12.3 v 15.7 c 6.6,-5.4 10.8,-13.6 10.8,-22.8 0,-16.3 -13.2,-29.5 -29.5,-29.5 -16.3,0 -29.5,13.2 -29.5,29.5 0,9.2 4.2,17.4 10.9,22.8 z"
             id="path3875" />
          <path
             style="fill:#00c7dc;fill-opacity:1;stroke:#3d4142;stroke-width:2;stroke-linecap:round;stroke-linejoin:round;stroke-miterlimit:10"
             inkscape:connector-curvature="0"
             stroke-miterlimit="10"
             d="m 364.2,429.3 c 0,3.4 -2.8,6.2 -6.2,6.2 l 0,0 c -3.4,0 -6.2,-2.8 -6.2,-6.2 v -85.5 c 0,-3.4 2.8,-6.2 6.2,-6.2 l 0,0 c 3.4,0 6.2,2.8 6.2,6.2 v 85.5 z"
             id="path3877" />
        </g>
        <text
           xml:space="preserve"
           style="font-size:70.11651611px;font-style:normal;font-weight:normal;line-height:125%;letter-spacing:0px;word-spacing:0px;fill:#000000;fill-opacity:1;stroke:none;font-family:Sans"
           x="174.53529"
           y="285.14551"
           id="text4997"
           sodipodi:linespacing="125%"><tspan
             sodipodi:role="line"
             id="tspan4999"
             x="174.53529"
             y="285.14551"
             style="font-size:315.52432251px;font-style:normal;font-variant:normal;font-weight:bold;font-stretch:condensed;fill:#00c7dc;fill-opacity:1;font-family:PT Sans Narrow;-inkscape-font-specification:PT Sans Narrow Bold Condensed">CR</tspan></text>
      </g>
      <text
         sodipodi:linespacing="125%"
         id="text5036"
         y="635.21936"
         x="371.76074"
         style="font-size:40px;font-style:normal;font-weight:normal;line-height:125%;letter-spacing:0px;word-spacing:0px;fill:#000000;fill-opacity:1;stroke:none;font-family:Sans"
         xml:space="preserve"><tspan
           style="font-size:48px;font-style:normal;font-variant:normal;font-weight:bold;font-stretch:condensed;text-align:center;letter-spacing:12.81000042px;text-anchor:middle;fill:#00c7dc;fill-opacity:1;font-family:PT Sans Narrow;-inkscape-font-specification:PT Sans Narrow Bold Condensed"
           y="635.21936"
           x="378.16574"
           id="tspan5038"
           sodipodi:role="line">CAR RECALL</tspan><tspan
           style="font-size:48px;font-style:normal;font-variant:normal;font-weight:bold;font-stretch:condensed;text-align:center;letter-spacing:12.81000042px;text-anchor:middle;fill:#00c7dc;fill-opacity:1;font-family:PT Sans Narrow;-inkscape-font-specification:PT Sans Narrow Bold Condensed"
           id="tspan5040"
           y="695.21936"
           x="378.16574"
           sodipodi:role="line">INFORMATION</tspan></text>
    </g>
    <g
       inkscape:export-ydpi="600"
       inkscape:export-xdpi="600"
       inkscape:export-filename="/Users/kevinm/CRI.png"
       transform="translate(694.02419,341.22227)"
       id="g3770">
      <text
         xml:space="preserve"
         style="font-size:40px;font-style:normal;font-weight:normal;line-height:125%;letter-spacing:0px;word-spacing:0px;fill:#000000;fill-opacity:1;stroke:none;font-family:Sans"
         x="371.76074"
         y="635.21936"
         id="text3794"
         sodipodi:linespacing="125%"><tspan
           sodipodi:role="line"
           id="tspan3796"
           x="378.16574"
           y="635.21936"
           style="font-size:48px;font-style:normal;font-variant:normal;font-weight:bold;font-stretch:condensed;text-align:center;letter-spacing:12.81000041999999972px;text-anchor:middle;fill:#ffffff;fill-opacity:1;font-family:PT Sans Narrow;-inkscape-font-specification:PT Sans Narrow Bold Condensed">CAR RECALL</tspan><tspan
           sodipodi:role="line"
           x="378.16574"
           y="695.21936"
           id="tspan3798"
           style="font-size:48px;font-style:normal;font-variant:normal;font-weight:bold;font-stretch:condensed;text-align:center;letter-spacing:12.81000041999999972px;text-anchor:middle;fill:#ffffff;fill-opacity:1;font-family:PT Sans Narrow;-inkscape-font-specification:PT Sans Narrow Bold Condensed">INFORMATION</tspan></text>
    </g>
  </g>
</svg>
